<svg width="20" height="20" viewBox="0 0 20 20" fill="none" xmlns="http://www.w3.org/2000/svg">
<g clip-path="url(#clip0_3_35)">
<rect width="20" height="20" rx="4" fill="black" fill-opacity="0.22"/>
<path d="M5 3.33332V16.6667C4.99996 16.8149 5.03948 16.9605 5.11448 17.0884C5.18949 17.2163 5.29726 17.3219 5.42669 17.3943C5.55611 17.4666 5.70249 17.5031 5.85074 17.5C5.99898 17.4969 6.14371 17.4544 6.27 17.3767L17.1033 10.71C17.2247 10.6354 17.3249 10.531 17.3944 10.4067C17.4639 10.2824 17.5004 10.1424 17.5004 9.99999C17.5004 9.85758 17.4639 9.71755 17.3944 9.59325C17.3249 9.46896 17.2247 9.36455 17.1033 9.28999L6.27 2.62332C6.14371 2.54563 5.99898 2.50303 5.85074 2.49994C5.70249 2.49684 5.55611 2.53335 5.42669 2.60571C5.29726 2.67806 5.18949 2.78364 5.11448 2.91154C5.03948 3.03945 4.99996 3.18505 5 3.33332Z" fill="white"/>
</g>
<defs>
<clipPath id="clip0_3_35">
<rect width="20" height="20" rx="4" fill="white"/>
</clipPath>
</defs>
</svg>
