<svg width="20" height="20" viewBox="0 0 20 20" fill="none" xmlns="http://www.w3.org/2000/svg">
<g clip-path="url(#clip0_8_2)">
<path d="M7.5 3.33337H5.83333C5.3913 3.33337 4.96738 3.50897 4.65482 3.82153C4.34226 4.13409 4.16666 4.55801 4.16666 5.00004V15C4.16666 15.4421 4.34226 15.866 4.65482 16.1786C4.96738 16.4911 5.3913 16.6667 5.83333 16.6667H7.5C7.94202 16.6667 8.36595 16.4911 8.67851 16.1786C8.99107 15.866 9.16666 15.4421 9.16666 15V5.00004C9.16666 4.55801 8.99107 4.13409 8.67851 3.82153C8.36595 3.50897 7.94202 3.33337 7.5 3.33337Z" fill="white"/>
<path d="M14.1667 3.33337H12.5C12.058 3.33337 11.6341 3.50897 11.3215 3.82153C11.0089 4.13409 10.8333 4.55801 10.8333 5.00004V15C10.8333 15.4421 11.0089 15.866 11.3215 16.1786C11.6341 16.4911 12.058 16.6667 12.5 16.6667H14.1667C14.6087 16.6667 15.0326 16.4911 15.3452 16.1786C15.6577 15.866 15.8333 15.4421 15.8333 15V5.00004C15.8333 4.55801 15.6577 4.13409 15.3452 3.82153C15.0326 3.50897 14.6087 3.33337 14.1667 3.33337Z" fill="white"/>
</g>
<defs>
<clipPath id="clip0_8_2">
<rect width="20" height="20" fill="white"/>
</clipPath>
</defs>
</svg>
